<svg width="1019" height="202" viewBox="0 0 1019 202" fill="none" xmlns="http://www.w3.org/2000/svg">
<g clip-path="url(#clip0_1_2)">
<path fill-rule="evenodd" clip-rule="evenodd" d="M913.229 136.85L912.939 128.54L918.049 128.23L918.349 133.03L920.589 132.4L920.289 127.61L924.439 127.3L923.829 120.59L922.859 121.54L922.849 124.74L920.299 125.05L920.309 121.53L906.649 98.48L709.839 98.75L707.479 135.49L702.579 75.41L646.359 72.97L642.479 84.14L641.649 138.77L639.419 138.45L636.779 68.47L578.319 68.9L574.779 74L571.679 139.49L568.169 139.47L567.439 73.98L505.139 73.44L502.239 81.73L444.709 86.01L439.919 85.99L440.199 97.49H437.959L437.699 80.87L429.709 80.85L367.359 95.96L331.259 95.2L304.099 95.42L304.069 105.33L299.269 105.63L299.239 116.17L216.319 73.07L208.009 73.04L208.029 67.93L74.179 69.38L73.679 108.67L2.179 109.7L1.27898 172.64L3.77898 172.65L3.57903 164.98L5.47893 164.99L5.37895 172.33L7.37895 172.66V164.99L28.4789 165.07L28.379 174.65L31.279 174.66L31.379 165.08H32.279V174.67H35.179V165.09L74.179 165.23L877.059 156.21L913.229 136.85Z" fill="url(#paint0_linear_1_2)"/>
<path fill-rule="evenodd" clip-rule="evenodd" d="M64.2791 163.91L1.979 163.7L1.87903 173.6L64.1791 173.82L64.2791 163.91Z" fill="#636363"/>
<path d="M845.789 144.28L321.809 146.92L321.779 154.91L313.159 154.88L313.189 147.21L295.299 147.15" stroke="#777777" stroke-width="2"/>
<path d="M209.349 147.17L68.179 149.87" stroke="#777777" stroke-width="1.3333"/>
<path d="M942.049 74.71L916.629 121.91" stroke="#CBCBCB" stroke-width="1.3333"/>
<path fill-rule="evenodd" clip-rule="evenodd" d="M217.959 61.89L217.689 46.88L232.069 46.93L232.019 61.63L217.959 61.89Z" fill="black"/>
<path fill-rule="evenodd" clip-rule="evenodd" d="M233.689 39.27L218.999 39.21L221.889 32.51L221.919 24.53H224.159L227.659 26.78L227.639 33.49L230.839 33.51H233.389L233.689 39.27Z" fill="black"/>
<path fill-rule="evenodd" clip-rule="evenodd" d="M238.869 19.79L232.139 25.52L233.409 27.12L233.339 46.93L242.609 47.29L242.679 26.52L238.869 19.79Z" fill="url(#paint1_linear_1_2)"/>
<path fill-rule="evenodd" clip-rule="evenodd" d="M982.235 182.5L982.824 198.21L644.164 200.96L446.714 200.78L180.644 199.85L26.0841 198.29L13.984 187.54L982.235 182.5Z" fill="url(#paint2_linear_1_2)"/>
<path fill-rule="evenodd" clip-rule="evenodd" d="M945.929 133.13L945.439 53.54L942.119 53.53L942.609 133.38L945.929 133.13Z" fill="#DBDBDB"/>
<path fill-rule="evenodd" clip-rule="evenodd" d="M949.799 47.95L949.499 59.68L944.909 59.92L944.919 57.87L946.699 57.63L948.009 48.45L949.799 47.95Z" fill="#DBDBDB"/>
<path fill-rule="evenodd" clip-rule="evenodd" d="M947.399 76.25L944.599 76.24L945.239 111.7L947.019 111.71L947.029 109.67H948.299L948.079 102.27L952.159 102.55V100.25L948.589 100.24L948.599 98.45H947.319L947.399 76.25Z" fill="#A7A7A7"/>
<path d="M993.89 132.28L946.899 74.97" stroke="#DBDBDB" stroke-width="1.3333"/>
<path d="M977.818 132.23L947.399 75.49" stroke="#CBCBCB" stroke-width="1.3333"/>
<path d="M917.109 131.76L942.559 74.96" stroke="#DBDBDB" stroke-width="1.3333"/>
<path fill-rule="evenodd" clip-rule="evenodd" d="M944.679 53.54L944.439 48.95L943.159 48.94L943.139 53.79L944.679 53.54Z" fill="#777777"/>
<path d="M819.589 149.79L819.629 139.84L815.549 139.82L815.509 150.03" stroke="white" stroke-width="2"/>
<path d="M749.439 150.31L749.469 140.36L745.389 140.34L745.359 150.55" stroke="white" stroke-width="2"/>
<path d="M680.049 151.09L680.079 141.14L675.999 141.12L675.959 151.33" stroke="white" stroke-width="2"/>
<path d="M608.869 151.6L608.899 141.65L604.309 141.64L604.279 151.84" stroke="white" stroke-width="2"/>
<path d="M718.569 150.2L718.599 140.25L706.869 140.21L706.839 150.41" stroke="white" stroke-width="2"/>
<path d="M784.639 150.17L784.679 140.23L778.559 140.2L778.519 150.41" stroke="white" stroke-width="2"/>
<path d="M539.989 151.62L540.029 141.67L535.949 141.65L535.909 151.86" stroke="white" stroke-width="2"/>
<path d="M469.069 152.13L469.109 142.19L465.019 142.17L464.989 152.37" stroke="white" stroke-width="2"/>
<path d="M437.439 152.53L437.469 142.59L427.529 142.55L427.489 152.75" stroke="white" stroke-width="2"/>
<path d="M506.569 152.01L506.609 142.06L498.449 142.03L498.409 152.24" stroke="white" stroke-width="2"/>
<path d="M577.239 151.23L577.269 141.29L566.819 141.25L566.779 151.45" stroke="white" stroke-width="2"/>
<path d="M646.879 150.46L646.919 140.51L638.499 140.48L638.469 150.68" stroke="white" stroke-width="2"/>
<path d="M293.049 153.23L292.939 110.45L275.079 110.39L275.439 154.52" stroke="white" stroke-width="2"/>
<path fill-rule="evenodd" clip-rule="evenodd" d="M274.249 57.57L274.409 157.58L209.099 158.11L209.919 142.81L207.629 140.76L207.649 135.15L211.759 127.25L217.629 127.28L217.599 60.44L230.619 60.23L230.659 47.47L245.719 46.51L245.699 51.87L260.749 51.92L265.069 57.29L274.249 57.57Z" fill="#DBDBDB"/>
<path d="M831.849 146L831.829 152.38L825.709 152.36L825.729 146.38" stroke="white" stroke-width="2.6667"/>
<path d="M812.209 146.45L812.179 152.82L799.689 152.78L799.709 146.8" stroke="white" stroke-width="2.6667"/>
<path d="M776.999 146.83L776.979 153.21L764.479 153.17L764.499 147.19" stroke="white" stroke-width="2.6667"/>
<path d="M737.969 146.19L737.949 152.56L731.319 152.54L731.339 146.56" stroke="white" stroke-width="2.6667"/>
<path d="M692.819 146.03L692.799 152.41L686.929 152.39L686.959 146.41" stroke="white" stroke-width="2.6667"/>
<path d="M672.919 147.23L672.899 153.61L660.659 153.57L660.679 147.59" stroke="white" stroke-width="2.6667"/>
<path d="M635.159 148.12L635.139 154.5L622.899 154.45L622.919 148.48" stroke="white" stroke-width="2.6667"/>
<path d="M553.269 147.33L553.249 153.7L546.619 153.68L546.639 147.7" stroke="white" stroke-width="2.6667"/>
<path d="M532.609 148.02L532.579 154.39L520.599 154.35L520.619 148.37" stroke="white" stroke-width="2.6667"/>
<path d="M495.619 148.65L495.589 155.03L483.609 154.99L483.629 149.01" stroke="white" stroke-width="2.6667"/>
<path d="M458.119 148.52L458.089 154.9L452.229 154.88L452.249 148.9" stroke="white" stroke-width="2.6667"/>
<path d="M159.119 151.56L159.099 157.94L153.239 157.92L153.259 151.94" stroke="white" stroke-width="2.6667"/>
<path d="M127.229 152.21L127.209 158.59L115.479 158.55L115.499 152.57" stroke="white" stroke-width="2.6667"/>
<path d="M170.079 155.43L170.119 145.48L165.269 145.46L165.239 155.67" stroke="white" stroke-width="2"/>
<path d="M139.209 155.83L139.249 145.88L129.809 145.85L129.779 156.05" stroke="white" stroke-width="2"/>
<path d="M101.199 156.21L101.239 146.26L96.649 146.24L96.609 156.45" stroke="white" stroke-width="2"/>
<path d="M71.879 157.13V147.18L67.2791 147.16V157.37" stroke="white" stroke-width="2"/>
<path d="M63.6791 173.17V163.22L59.379 163.21L59.2791 173.41" stroke="white" stroke-width="2"/>
<path d="M34.5791 173.83V163.89L30.2791 163.87L30.1791 174.07" stroke="white" stroke-width="2"/>
<path fill-rule="evenodd" clip-rule="evenodd" d="M270.389 139.71L208.659 139.75L210.429 142.3L210.389 155.06L214.469 155.07L214.519 142.32L218.849 142.33L218.799 155.34L222.379 155.35L222.419 142.09L244.099 142.17L244.059 154.67L249.159 154.94L249.209 142.18L255.579 142.21L256.049 154.96L260.899 154.72L260.939 142.22L265.539 142.24L265.489 155.51H267.529L267.579 142.25L270.639 142.26L270.389 139.71Z" fill="white"/>
<path fill-rule="evenodd" clip-rule="evenodd" d="M269.379 62.92L266.579 62.91L266.559 66.73L269.369 66.74L269.379 62.92Z" fill="black"/>
<path fill-rule="evenodd" clip-rule="evenodd" d="M261.379 62.89L258.579 62.88L258.559 66.71H261.369L261.379 62.89Z" fill="black"/>
<path fill-rule="evenodd" clip-rule="evenodd" d="M269.289 89.92L266.479 89.91L266.469 93.73L269.279 93.74L269.289 89.92Z" fill="black"/>
<path fill-rule="evenodd" clip-rule="evenodd" d="M261.289 89.89L258.479 89.88L258.469 93.71H261.279L261.289 89.89Z" fill="black"/>
<path fill-rule="evenodd" clip-rule="evenodd" d="M252.289 89.86L249.479 89.85L249.469 93.67L252.279 93.68L252.289 89.86Z" fill="black"/>
<path fill-rule="evenodd" clip-rule="evenodd" d="M226.929 118.34L224.129 118.33L224.119 122.16L226.919 122.17L226.929 118.34Z" fill="black"/>
<path fill-rule="evenodd" clip-rule="evenodd" d="M262.339 131.98L259.539 131.97L259.529 135.8L262.329 135.81L262.339 131.98Z" fill="black"/>
<path fill-rule="evenodd" clip-rule="evenodd" d="M254.339 131.95H251.539L251.529 135.77L254.329 135.78L254.339 131.95Z" fill="black"/>
<path fill-rule="evenodd" clip-rule="evenodd" d="M243.319 75.07L222.399 75L222.359 86.22L243.279 86.29L243.319 75.07Z" fill="#B7B7B7"/>
<path d="M239.239 75.07L227.469 86.26" stroke="#7A7A7A" stroke-width="1.3333"/>
<path d="M233.349 80.65L233.369 75.55L227.479 81.41L227.469 86" stroke="#7A7A7A" stroke-width="1.3333"/>
<path d="M230.499 78.29L230.539 83.21" stroke="#7A7A7A" stroke-width="1.3333"/>
<path fill-rule="evenodd" clip-rule="evenodd" d="M243.269 89.07L222.349 89L222.309 100.22L243.229 100.29L243.269 89.07Z" fill="#B7B7B7"/>
<path d="M239.189 89.07L227.419 100.26" stroke="#7A7A7A" stroke-width="1.3333"/>
<path d="M233.299 94.65L233.319 89.55L227.439 95.41L227.419 100" stroke="#7A7A7A" stroke-width="1.3333"/>
<path d="M230.459 92.29L230.489 97.21" stroke="#7A7A7A" stroke-width="1.3333"/>
<path fill-rule="evenodd" clip-rule="evenodd" d="M243.219 102.33L222.309 102.25L222.269 113.48L243.179 113.55L243.219 102.33Z" fill="#B7B7B7"/>
<path d="M239.139 102.33L227.369 113.51" stroke="#7A7A7A" stroke-width="1.3333"/>
<path d="M233.259 107.9L233.269 102.8L227.389 108.67L227.369 113.26" stroke="#7A7A7A" stroke-width="1.3333"/>
<path d="M230.409 105.55L230.439 110.47" stroke="#7A7A7A" stroke-width="1.3333"/>
<path fill-rule="evenodd" clip-rule="evenodd" d="M269.699 117.25L266.899 117.24L265.369 116.22L262.309 115.19L248.539 115.14V113.86L241.649 113.84V115.63L239.339 118.17L238.809 123.78L240.589 127.1L257.939 127.16L257.679 126.39L265.339 126.17L267.899 124.13L269.939 122.1L269.699 117.25Z" fill="#FF7F7F"/>
<path fill-rule="evenodd" clip-rule="evenodd" d="M266.889 120.05L241.119 119.96Z" fill="#5B0000"/>
<path d="M266.889 120.05L241.119 119.96" stroke="#5B0000" stroke-width="1.3333"/>
<path d="M232.169 127.33L212.019 127.26" stroke="white" stroke-width="1.3333"/>
<path d="M269.879 139.45L269.899 134.86L239.029 135.01" stroke="white" stroke-width="0.66667"/>
<path d="M238.759 140.11L239.059 127.35" stroke="white" stroke-width="0.66667"/>
<path d="M232.879 141.36L232.929 127.59" stroke="white" stroke-width="0.66667"/>
<path fill-rule="evenodd" clip-rule="evenodd" d="M214.019 137.98L223.199 138.01L223.459 135.71H220.919L220.659 134.17L214.029 134.15L214.019 137.98Z" fill="white"/>
<path d="M229.319 139.05L229.339 134.21L223.999 127.55" stroke="white" stroke-width="0.66667"/>
<path fill-rule="evenodd" clip-rule="evenodd" d="M274.249 57.83L278.599 52.23L268.139 52.2L268.169 45.57L245.719 45.49L245.949 51.87L258.959 52.17L264.039 57.79L274.249 57.83Z" fill="#BBBBBB"/>
<path fill-rule="evenodd" clip-rule="evenodd" d="M280.919 47.39L270.459 47.36L268.419 45.31L268.399 51.94L279.369 51.98L280.919 47.39Z" fill="#FF0000" stroke="black" stroke-width="1.3333"/>
<path d="M249.239 59.02L253.029 71.79" stroke="#F5F5F5" stroke-width="1.3333"/>
<path d="M263.999 72.08L259.199 58.03" stroke="#F5F5F5" stroke-width="1.3333"/>
<path fill-rule="evenodd" clip-rule="evenodd" d="M265.059 57.54L265.049 61.88L259.699 59.05L248.729 59.02L244.389 61.04L244.419 53.65L245.949 51.87L259.219 51.91L265.059 57.54Z" fill="#A7A7A7"/>
<path fill-rule="evenodd" clip-rule="evenodd" d="M981.542 184.95L15.2821 190.19L0.0820007 171.59L59.682 170.48L61.782 155.25C214.922 154.79 367.862 153.29 520.352 150.78L822.722 149.3C837.722 148.89 851.442 144.12 853.072 132.81C908.542 132.1 963.432 131.29 1018.9 128.54C1018.53 129.53 1017.93 131.95 1017.1 133.13C1005.3 150.17 994.87 164.09 981.545 184.95H981.542Z" fill="url(#paint3_linear_1_2)" stroke="black" stroke-width="0.13333"/>
<path fill-rule="evenodd" clip-rule="evenodd" d="M199.249 131.03L169.649 130.93L169.609 143.94L199.199 144.05L199.249 131.03Z" fill="#0000FF" stroke="black" stroke-width="0.13333"/>
<path fill-rule="evenodd" clip-rule="evenodd" d="M199.289 117.77L169.699 117.67L169.659 130.68L199.249 130.78L199.289 117.77Z" fill="#670000" stroke="black" stroke-width="0.13333"/>
<path fill-rule="evenodd" clip-rule="evenodd" d="M199.339 104.51L169.739 104.4L169.699 117.41L199.289 117.51L199.339 104.51Z" fill="#0000FF" stroke="black" stroke-width="0.13333"/>
<path fill-rule="evenodd" clip-rule="evenodd" d="M199.379 91.22L169.789 91.12L169.749 104.13L199.339 104.23L199.379 91.22Z" fill="#0000FF" stroke="black" stroke-width="0.13333"/>
<path fill-rule="evenodd" clip-rule="evenodd" d="M199.429 77.93L169.839 77.83L169.789 90.84L199.389 90.94L199.429 77.93Z" fill="#670000" stroke="black" stroke-width="0.13333"/>
<path fill-rule="evenodd" clip-rule="evenodd" d="M199.479 64.71L169.879 64.61L169.839 77.61L199.429 77.72L199.479 64.71Z" fill="#670000" stroke="black" stroke-width="0.13333"/>
<path d="M203.499 155.29L203.539 145.34L198.689 145.32L198.659 155.53" stroke="white" stroke-width="2"/>
<path fill-rule="evenodd" clip-rule="evenodd" d="M165.569 130.92L135.979 130.81L135.939 143.83L165.529 143.93L165.569 130.92Z" fill="#0000FF" stroke="black" stroke-width="0.13333"/>
<path fill-rule="evenodd" clip-rule="evenodd" d="M165.619 117.65L136.029 117.55L135.979 130.56L165.579 130.66L165.619 117.65Z" fill="#670000" stroke="black" stroke-width="0.13333"/>
<path fill-rule="evenodd" clip-rule="evenodd" d="M165.659 104.39L136.069 104.29L136.029 117.29L165.619 117.4L165.659 104.39Z" fill="#670000" stroke="black" stroke-width="0.13333"/>
<path fill-rule="evenodd" clip-rule="evenodd" d="M165.709 91.1L136.119 91L136.069 104.01L165.669 104.11L165.709 91.1Z" fill="#0000FF" stroke="black" stroke-width="0.13333"/>
<path fill-rule="evenodd" clip-rule="evenodd" d="M165.759 77.81L136.159 77.71L136.119 90.72L165.709 90.82L165.759 77.81Z" fill="#0000FF" stroke="black" stroke-width="0.13333"/>
<path fill-rule="evenodd" clip-rule="evenodd" d="M165.799 64.59L136.209 64.49L136.169 77.5L165.759 77.6L165.799 64.59Z" fill="#0000FF" stroke="black" stroke-width="0.13333"/>
<path fill-rule="evenodd" clip-rule="evenodd" d="M130.369 130.8L70.179 130.59L70.079 143.85L130.319 144.07L130.369 130.8Z" fill="#777777" stroke="black" stroke-width="0.13333"/>
<path fill-rule="evenodd" clip-rule="evenodd" d="M130.419 117.28L70.1791 117.07V130.33L130.369 130.55L130.419 117.28Z" fill="#777777" stroke="black" stroke-width="0.13333"/>
<path fill-rule="evenodd" clip-rule="evenodd" d="M130.459 104.01L70.279 103.8L70.179 117.07L130.419 117.28L130.459 104.01Z" fill="#777777" stroke="black" stroke-width="0.13333"/>
<path fill-rule="evenodd" clip-rule="evenodd" d="M130.509 90.75L70.2791 90.54V103.8L130.459 104.01L130.509 90.75Z" fill="#670000" stroke="black" stroke-width="0.13333"/>
<path fill-rule="evenodd" clip-rule="evenodd" d="M130.559 77.48L70.379 77.27L70.2791 90.54L130.509 90.75L130.559 77.48Z" fill="#670000" stroke="black" stroke-width="0.13333"/>
<path fill-rule="evenodd" clip-rule="evenodd" d="M130.599 64.22L70.379 64.01V77.27L130.559 77.49L130.599 64.22Z" fill="#670000" stroke="black" stroke-width="0.13333"/>
<path fill-rule="evenodd" clip-rule="evenodd" d="M61.379 149.18L1.17908 148.97V162.24L61.379 162.45V149.18Z" fill="#670000" stroke="black" stroke-width="0.13333"/>
<path fill-rule="evenodd" clip-rule="evenodd" d="M61.479 135.91L1.27899 135.71L1.17902 148.97L61.379 149.18L61.479 135.91Z" fill="#670000" stroke="black" stroke-width="0.13333"/>
<path fill-rule="evenodd" clip-rule="evenodd" d="M61.479 122.65L1.27899 122.44V135.71L61.479 135.91V122.65Z" fill="#777777" stroke="black" stroke-width="0.13333"/>
<path fill-rule="evenodd" clip-rule="evenodd" d="M61.579 109.39L1.37897 109.18L1.27899 122.44L61.479 122.65L61.579 109.39Z" fill="#777777" stroke="black" stroke-width="0.13333"/>
<path fill-rule="evenodd" clip-rule="evenodd" d="M362.519 128.53L332.929 128.42L332.879 141.43L362.479 141.53L362.519 128.53Z" fill="#0000FF" stroke="black" stroke-width="0.13333"/>
<path fill-rule="evenodd" clip-rule="evenodd" d="M362.569 115.24L332.979 115.13L332.929 128.14L362.519 128.25L362.569 115.24Z" fill="#0000FF" stroke="black" stroke-width="0.13333"/>
<path fill-rule="evenodd" clip-rule="evenodd" d="M362.619 102.01L333.019 101.91L332.979 114.92L362.569 115.02L362.619 102.01Z" fill="#0000FF" stroke="black" stroke-width="0.13333"/>
<path fill-rule="evenodd" clip-rule="evenodd" d="M328.849 128.41L299.259 128.3L299.209 141.31L328.799 141.42L328.849 128.41Z" fill="#0000FF" stroke="black" stroke-width="0.13333"/>
<path fill-rule="evenodd" clip-rule="evenodd" d="M328.899 115.12L299.299 115.01L299.259 128.03L328.849 128.13L328.899 115.12Z" fill="#0000FF" stroke="black" stroke-width="0.13333"/>
<path fill-rule="evenodd" clip-rule="evenodd" d="M328.939 101.9L299.349 101.79L299.299 114.8L328.899 114.91L328.939 101.9Z" fill="#0000FF" stroke="black" stroke-width="0.13333"/>
<path fill-rule="evenodd" clip-rule="evenodd" d="M426.299 128.26L366.099 128.05L366.049 141.32L426.249 141.53L426.299 128.26Z" fill="#FF8000" stroke="black" stroke-width="0.13333"/>
<path fill-rule="evenodd" clip-rule="evenodd" d="M426.339 114.74L366.139 114.53L366.099 127.8L426.299 128.01L426.339 114.74Z" fill="#FF8000" stroke="black" stroke-width="0.13333"/>
<path fill-rule="evenodd" clip-rule="evenodd" d="M426.389 101.48L366.189 101.27L366.139 114.53L426.339 114.74L426.389 101.48Z" fill="#FF8000" stroke="black" stroke-width="0.13333"/>
<path fill-rule="evenodd" clip-rule="evenodd" d="M426.439 88.21L366.239 88L366.189 101.27L426.389 101.48L426.439 88.21Z" fill="#FF8000" stroke="black" stroke-width="0.13333"/>
<path fill-rule="evenodd" clip-rule="evenodd" d="M426.479 74.95L366.279 74.73L366.239 88L426.439 88.21L426.479 74.95Z" fill="#670000" stroke="black" stroke-width="0.13333"/>
<path fill-rule="evenodd" clip-rule="evenodd" d="M426.529 61.68L366.329 61.47L366.279 74.74L426.479 74.95L426.529 61.68Z" fill="#670000" stroke="black" stroke-width="0.13333"/>
<path fill-rule="evenodd" clip-rule="evenodd" d="M497.979 127.51L437.779 127.3L437.729 140.57L497.939 140.78L497.979 127.51Z" fill="#FF8000" stroke="black" stroke-width="0.13333"/>
<path fill-rule="evenodd" clip-rule="evenodd" d="M498.029 113.99L437.829 113.78L437.779 127.05L497.979 127.26L498.029 113.99Z" fill="#777777" stroke="black" stroke-width="0.13333"/>
<path fill-rule="evenodd" clip-rule="evenodd" d="M498.079 100.73L437.869 100.52L437.829 113.78L498.029 113.99L498.079 100.73Z" fill="#777777" stroke="black" stroke-width="0.13333"/>
<path fill-rule="evenodd" clip-rule="evenodd" d="M498.119 87.46L437.919 87.25L437.869 100.52L498.079 100.73L498.119 87.46Z" fill="#670000" stroke="black" stroke-width="0.13333"/>
<path fill-rule="evenodd" clip-rule="evenodd" d="M498.169 74.19L437.969 73.99L437.919 87.25L498.119 87.46L498.169 74.19Z" fill="#670000" stroke="black" stroke-width="0.13333"/>
<path fill-rule="evenodd" clip-rule="evenodd" d="M566.099 126.75L505.899 126.54L505.849 139.81L566.049 140.01L566.099 126.75Z" fill="#777777" stroke="black" stroke-width="0.13333"/>
<path fill-rule="evenodd" clip-rule="evenodd" d="M566.149 113.23L505.939 113.02L505.899 126.29L566.099 126.49L566.149 113.23Z" fill="#777777" stroke="black" stroke-width="0.13333"/>
<path fill-rule="evenodd" clip-rule="evenodd" d="M566.189 99.97L505.989 99.75L505.939 113.02L566.149 113.23L566.189 99.97Z" fill="#670000" stroke="black" stroke-width="0.13333"/>
<path fill-rule="evenodd" clip-rule="evenodd" d="M566.239 86.7L506.039 86.49L505.989 99.75L566.189 99.97L566.239 86.7Z" fill="#670000" stroke="black" stroke-width="0.13333"/>
<path fill-rule="evenodd" clip-rule="evenodd" d="M566.289 73.43L506.079 73.22L506.039 86.49L566.239 86.7L566.289 73.43Z" fill="#670000" stroke="black" stroke-width="0.13333"/>
<path fill-rule="evenodd" clip-rule="evenodd" d="M639.249 72.69L579.039 72.48L578.999 85.75L639.199 85.95L639.249 72.69Z" fill="#670000" stroke="black" stroke-width="0.13333"/>
<path fill-rule="evenodd" clip-rule="evenodd" d="M639.059 125.97L578.859 125.75L578.809 139.02L639.019 139.23L639.059 125.97Z" fill="#FF8000" stroke="black" stroke-width="0.13333"/>
<path fill-rule="evenodd" clip-rule="evenodd" d="M639.109 112.45L578.899 112.23L578.859 125.5L639.059 125.71L639.109 112.45Z" fill="#FF8000" stroke="black" stroke-width="0.13333"/>
<path fill-rule="evenodd" clip-rule="evenodd" d="M639.159 99.18L578.949 98.97L578.899 112.23L639.109 112.45L639.159 99.18Z" fill="#FF8000" stroke="black" stroke-width="0.13333"/>
<path fill-rule="evenodd" clip-rule="evenodd" d="M639.199 85.91L578.999 85.7L578.949 98.97L639.159 99.18L639.199 85.91Z" fill="#670000" stroke="black" stroke-width="0.13333"/>
<path fill-rule="evenodd" clip-rule="evenodd" d="M705.899 125.67L645.699 125.46L645.649 138.72L705.859 138.93L705.899 125.67Z" fill="#670000" stroke="black" stroke-width="0.13333"/>
<path fill-rule="evenodd" clip-rule="evenodd" d="M705.949 112.15L645.739 111.94L645.699 125.2L705.899 125.41L705.949 112.15Z" fill="#FF8000" stroke="black" stroke-width="0.13333"/>
<path fill-rule="evenodd" clip-rule="evenodd" d="M705.999 98.88L645.789 98.67L645.739 111.94L705.949 112.15L705.999 98.88Z" fill="#670000" stroke="black" stroke-width="0.13333"/>
<path fill-rule="evenodd" clip-rule="evenodd" d="M706.039 85.62L645.839 85.41L645.789 98.67L705.999 98.88L706.039 85.62Z" fill="#670000" stroke="black" stroke-width="0.13333"/>
<path fill-rule="evenodd" clip-rule="evenodd" d="M706.089 72.35L645.879 72.14L645.839 85.41L706.039 85.62L706.089 72.35Z" fill="#FF8000" stroke="black" stroke-width="0.13333"/>
<path fill-rule="evenodd" clip-rule="evenodd" d="M778.859 125.41L718.659 125.2L718.609 138.47L778.819 138.67L778.859 125.41Z" fill="#670000" stroke="black" stroke-width="0.13333"/>
<path fill-rule="evenodd" clip-rule="evenodd" d="M778.909 111.89L718.699 111.68L718.659 124.95L778.859 125.16L778.909 111.89Z" fill="#FF8000" stroke="black" stroke-width="0.13333"/>
<path fill-rule="evenodd" clip-rule="evenodd" d="M778.959 98.63L718.749 98.41L718.699 111.68L778.909 111.89L778.959 98.63Z" fill="#FF8000" stroke="black" stroke-width="0.13333"/>
<path fill-rule="evenodd" clip-rule="evenodd" d="M778.999 85.36L718.799 85.15L718.749 98.41L778.959 98.63L778.999 85.36Z" fill="#777777" stroke="black" stroke-width="0.13333"/>
<path fill-rule="evenodd" clip-rule="evenodd" d="M779.049 72.09L718.839 71.89L718.799 85.15L778.999 85.36L779.049 72.09Z" fill="#777777" stroke="black" stroke-width="0.13333"/>
<path fill-rule="evenodd" clip-rule="evenodd" d="M845.959 124.11L785.759 123.91L785.709 137.17L845.909 137.38L845.959 124.11Z" fill="#670000" stroke="black" stroke-width="0.13333"/>
<path fill-rule="evenodd" clip-rule="evenodd" d="M845.999 110.59L785.799 110.39L785.759 123.65L845.959 123.86L845.999 110.59Z" fill="#670000" stroke="black" stroke-width="0.13333"/>
<path fill-rule="evenodd" clip-rule="evenodd" d="M846.049 97.33L785.849 97.12L785.799 110.39L845.999 110.59L846.049 97.33Z" fill="#670000" stroke="black" stroke-width="0.13333"/>
<path fill-rule="evenodd" clip-rule="evenodd" d="M846.099 84.06L785.889 83.85L785.849 97.12L846.049 97.33L846.099 84.06Z" fill="#670000" stroke="black" stroke-width="0.13333"/>
<path fill-rule="evenodd" clip-rule="evenodd" d="M917.469 112.35L887.879 112.25L887.829 125.25L917.419 125.36L917.469 112.35Z" fill="#670000" stroke="black" stroke-width="0.13333"/>
<path fill-rule="evenodd" clip-rule="evenodd" d="M917.519 99.06L887.919 98.96L887.879 111.97L917.469 112.07L917.519 99.06Z" fill="#670000" stroke="black" stroke-width="0.13333"/>
<path fill-rule="evenodd" clip-rule="evenodd" d="M917.559 85.84L887.969 85.73L887.919 98.75L917.519 98.85L917.559 85.84Z" fill="#0000FF" stroke="black" stroke-width="0.13333"/>
<path fill-rule="evenodd" clip-rule="evenodd" d="M885.799 112.24L856.199 112.13L856.159 125.15L885.749 125.25L885.799 112.24Z" fill="#0000FF" stroke="black" stroke-width="0.13333"/>
<path fill-rule="evenodd" clip-rule="evenodd" d="M885.839 98.95L856.249 98.85L856.199 111.86L885.799 111.96L885.839 98.95Z" fill="#670000" stroke="black" stroke-width="0.13333"/>
<path fill-rule="evenodd" clip-rule="evenodd" d="M885.889 85.73L856.299 85.63L856.249 98.63L885.839 98.74L885.889 85.73Z" fill="#0000FF" stroke="black" stroke-width="0.13333"/>
<path fill-rule="evenodd" clip-rule="evenodd" d="M266.579 45.13L261.859 23.39H263.459V22.12L252.279 22.08V23.35L254.189 23.36L254.179 28.79L247.739 42.83L246.179 31.96L220.619 31.87L220.609 34.43L243.609 34.51L244.859 44.09L243.259 45.37L249.639 45.39L257.369 28.81L260.249 28.49L263.699 45.12L266.579 45.13Z" fill="#DBDBDB"/>
<path d="M232.109 34.15L243.889 45.37" stroke="#DBDBDB" stroke-width="1.3333"/>
<path fill-rule="evenodd" clip-rule="evenodd" d="M279.069 34.95L278.109 35.59L278.069 47.09L276.159 47.08L276.199 35.58L274.279 35.57L273.009 33.65L273.019 30.77L274.939 28.23L278.459 28.56L280.359 31.76C280.139 34 280.139 34.42 279.069 34.95Z" fill="url(#paint4_linear_1_2)"/>
<path fill-rule="evenodd" clip-rule="evenodd" d="M233.039 47.25L218.649 47.2L218.679 39.53L233.369 39.58L233.039 47.25Z" fill="#20A8FC"/>
<path d="M256.189 0.0499878L256.149 11.55" stroke="black" stroke-width="1.3333"/>
<path d="M249.129 9.92999L256.479 9.94998" stroke="black" stroke-width="1.3333"/>
<path d="M251.699 5.13998L257.449 5.15997" stroke="black" stroke-width="1.3333"/>
<path d="M250.439 0.669983L256.509 0.689972" stroke="black" stroke-width="1.3333"/>
<path d="M256.509 0.369995L256.469 12.19" stroke="black" stroke-width="1.3333"/>
<path d="M289.279 130.83L276.819 130.79" stroke="black" stroke-width="1.3333"/>
<path d="M274.999 102.99L295.089 114.24L275.279 113.85" stroke="black" stroke-width="1.3333"/>
<path d="M256.549 12.11L256.519 22.31" stroke="#CBCBCB" stroke-width="1.3333"/>
<path d="M256.529 18.01L252.189 18" stroke="#CBCBCB" stroke-width="1.3333"/>
<path d="M250.419 13.96L256.539 13.99" stroke="#CBCBCB" stroke-width="1.3333"/>
<path d="M261.419 5.48999L261.359 22.07" stroke="#DBDBDB" stroke-width="1.3333"/>
<path fill-rule="evenodd" clip-rule="evenodd" d="M265.759 6.00998L258.099 5.98999L258.109 4.19998L265.759 4.22998V6.00998Z" fill="white"/>
<path fill-rule="evenodd" clip-rule="evenodd" d="M265.219 11.63L258.849 11.6V9.81998L265.229 9.84L265.219 11.63Z" fill="white"/>
</g>
<defs>
<linearGradient id="paint0_linear_1_2" x1="506.779" y1="61.89" x2="506.419" y2="164.83" gradientUnits="userSpaceOnUse">
<stop stop-color="#5B5B5B"/>
<stop offset="1"/>
</linearGradient>
<linearGradient id="paint1_linear_1_2" x1="242.659" y1="33.49" x2="232.089" y2="33.45" gradientUnits="userSpaceOnUse">
<stop stop-color="#272525"/>
<stop offset="0.4837" stop-color="#8E5923"/>
<stop offset="1" stop-color="white"/>
</linearGradient>
<linearGradient id="paint2_linear_1_2" x1="982.844" y1="192.58" x2="11.979" y2="189.19" gradientUnits="userSpaceOnUse">
<stop stop-color="#B30000"/>
<stop offset="0.1094" stop-color="#A70000"/>
<stop offset="0.1903" stop-color="#A70000"/>
<stop offset="0.2794" stop-color="#B30000"/>
<stop offset="0.3498" stop-color="#A70000"/>
<stop offset="0.4407" stop-color="#712121"/>
<stop offset="0.5004" stop-color="#A70000"/>
<stop offset="0.5897" stop-color="#712121"/>
<stop offset="0.6399" stop-color="#A70000"/>
<stop offset="0.7293" stop-color="#712626"/>
<stop offset="0.8204" stop-color="#A70000"/>
<stop offset="0.8701" stop-color="#7E2929"/>
<stop offset="1" stop-color="#670000"/>
</linearGradient>
<linearGradient id="paint3_linear_1_2" x1="1006.4" y1="151.59" x2="10.279" y2="178.57" gradientUnits="userSpaceOnUse">
<stop stop-color="#272525"/>
<stop offset="0.11"/>
<stop offset="0.1881" stop-color="#1E1E1E"/>
<stop offset="0.28"/>
<stop offset="0.3495" stop-color="#272525"/>
<stop offset="0.44"/>
<stop offset="0.4994" stop-color="#272525"/>
<stop offset="0.59"/>
<stop offset="0.6407" stop-color="#272525"/>
<stop offset="0.7316" stop-color="#272525"/>
<stop offset="0.82"/>
<stop offset="0.8702" stop-color="#272525"/>
<stop offset="1"/>
</linearGradient>
<linearGradient id="paint4_linear_1_2" x1="274.909" y1="37.61" x2="282.269" y2="37.96" gradientUnits="userSpaceOnUse">
<stop stop-color="white"/>
<stop offset="1" stop-color="#7F7F7F"/>
</linearGradient>
<clipPath id="clip0_1_2">
<rect width="1019" height="201.92" fill="white" transform="matrix(-1 0 0 1 1019 0)"/>
</clipPath>
</defs>
</svg>
